<?xml version="1.0" standalone="no"?>
<!DOCTYPE svg PUBLIC "-//W3C//DTD SVG 1.1//EN" "http://www.w3.org/Graphics/SVG/1.1/DTD/svg11.dtd" >
<svg xmlns="http://www.w3.org/2000/svg">
<metadata></metadata>
<defs>
<font id="DamnNoisyKidsRegular" horiz-adv-x="586" >
<font-face units-per-em="2048" ascent="1638" descent="-410" />
<missing-glyph horiz-adv-x="500" />
<glyph horiz-adv-x="0" />
<glyph horiz-adv-x="2048" />
<glyph unicode="&#xd;" />
<glyph unicode=" " />
<glyph unicode="!" horiz-adv-x="630" d="M20 80l66 322l384 -174l-64 -320zM78 584l128 1046l498 -242l-244 -980z" />
<glyph unicode="&#x22;" horiz-adv-x="1030" d="M160 1170l100 504l328 -150l-100 -502zM628 1130l100 504l328 -150l-98 -502z" />
<glyph unicode="#" horiz-adv-x="1516" d="M70 838l40 372l296 -2l48 264l330 -150l-22 -118l168 -2l48 270l328 -150l-22 -122l158 -2l-28 -374l-198 2l-30 -166l276 -4l-26 -374l-318 4l-46 -260l-330 148l22 116l-168 2l-48 -266l-328 148l22 122l-154 2l44 372l176 -2l32 168zM664 664l168 -2l30 168l-168 2z " />
<glyph unicode="$" horiz-adv-x="1288" d="M64 642q32 244 162 438l-112 334l218 -20l44 -134q30 30 74 64l-60 184l216 -20l20 -56q124 58 266 58t256 -88l154 -506l-458 -116q10 40 10 68q0 56 -52 56q-82 0 -184 -116q-56 -66 -60 -128l504 74l138 -228q-74 -134 -186 -242l78 -226l-216 18l-28 80 q-48 -28 -82 -42l52 -148l-218 18l-26 74q-22 -2 -62 -2q-180 0 -300 114v2l286 254q30 -72 90 -72q32 0 72 20q118 54 106 132l-648 -26z" />
<glyph unicode="%" horiz-adv-x="1910" d="M24 1046q58 148 264 266q166 96 323 131t262 35t193 -24l94 -168l150 218l240 -272l-312 -448q176 44 291 44t201 -22l184 -330q-70 -138 -246 -234t-332 -131t-271 -35t-213 32l-36 64l-144 -204l-238 268l396 572q-214 -84 -426 -84q-118 0 -216 32zM414 922 q6 -28 76 -32t163 19t155 58t56 63q-8 26 -78 30q-170 10 -316 -74q-62 -36 -56 -64zM1080 274q8 -28 76 -32q160 -10 316 76q62 34 56 62t-77 32t-164 -18t-154 -57t-53 -63z" />
<glyph unicode="&#x26;" horiz-adv-x="1380" d="M38 704l114 400q286 236 970 428q76 -340 134 -568l-216 -58q-466 -128 -466 -176q0 -10 14 -18q40 -28 105 -28t123 8l44 -226q-376 -100 -376 -168q0 -30 121 -30t281 66l44 18l74 428l328 -150l-144 -816l-328 150l16 92q-198 -64 -356 -64q-84 0 -156 20 q-206 52 -270 148l80 280q66 56 164 106q-216 58 -300 158z" />
<glyph unicode="'" horiz-adv-x="486" d="M22 1106q118 322 106 520l342 -30q4 -278 -118 -612q-110 38 -330 122z" />
<glyph unicode="(" horiz-adv-x="814" d="M26 757q2 469 434 855l392 -86q-472 -358 -472 -718q0 -222 132 -437t328 -385l-386 -82q-430 384 -428 853z" />
<glyph unicode=")" horiz-adv-x="920" d="M40 -10q470 358 470 716q0 220 -132 436t-326 388l384 82q432 -386 429 -855t-435 -853z" />
<glyph unicode="*" horiz-adv-x="666" d="M80 1236l68 152l104 2l-130 138l158 54l82 -86v182l152 -68v-118l134 124l52 -158l-72 -66l178 2l-68 -152l-138 -2l130 -138l-158 -52l-58 62v-160l-152 70v126l-146 -134l-52 158l72 66z" />
<glyph unicode="+" horiz-adv-x="1042" d="M38 434l88 366l238 14l56 314l328 -148l-26 -146l288 16l-82 -370l-272 -14l-62 -336l-328 148l30 168z" />
<glyph unicode="," horiz-adv-x="698" d="M44 -218q118 326 106 518l342 -30q4 -274 -118 -608q-110 38 -330 120z" />
<glyph unicode="-" horiz-adv-x="778" d="M104 388l20 376l572 130l-12 -378z" />
<glyph unicode="." horiz-adv-x="592" d="M84 154l56 274l328 -148l-54 -276z" />
<glyph unicode="/" horiz-adv-x="986" d="M-62 262l876 1268l238 -270l-876 -1266z" />
<glyph unicode="0" horiz-adv-x="1206" d="M-12 630q4 40 20 120q72 282 286 494q234 234 508 234q154 0 268 -88l174 -570q-4 -24 -16 -70q-70 -280 -296 -504t-498 -224q-178 0 -300 116zM406 446q2 -90 86 -90q64 0 133 59t117 137t44 152q-4 92 -86 92q-66 0 -134 -59t-116 -138t-44 -153z" />
<glyph unicode="1" horiz-adv-x="710" d="M26 970l346 496l328 -150l-236 -1296l-328 148l146 804z" />
<glyph unicode="2" horiz-adv-x="1316" d="M34 18l116 370l2 -2q64 -14 287 62t279 157t56 133t-60 68q-110 28 -212 -146l-420 330q110 206 290 346q204 154 418 154q152 0 270 -88l172 -568q-4 -18 -16 -70q-64 -252 -280 -364l356 6l-84 -368z" />
<glyph unicode="3" horiz-adv-x="1276" d="M36 760l66 318q40 198 68 318q675 145 970 56l114 -344q-86 -142 -302 -308q104 0 164 -24l98 -348q-80 -156 -382 -294q-248 -114 -578 -114q-70 0 -146 6l114 278l182 10q116 6 258 65t142 99q0 22 -67 30t-307 -48l46 248q162 60 226 134q38 44 -46 44 q-116 0 -620 -126z" />
<glyph unicode="4" horiz-adv-x="1158" d="M12 410l190 1050l330 -148l-96 -530l246 94l110 616l386 -172l-236 -1298l-384 172l62 302l-368 -196z" />
<glyph unicode="5" horiz-adv-x="1166" d="M-6 26l110 278l184 10q144 8 242 65t86 99q-16 58 -188 58q-122 0 -336 -48l-20 290q38 212 120 634q355 80 724 80q172 0 260 -22l-58 -488q-346 -12 -604 -72l-26 -112q168 28 286 23t228 -47l84 -336q-80 -156 -376 -298q-244 -120 -574 -120q-70 0 -142 6z" />
<glyph unicode="6" horiz-adv-x="1238" d="M44 634q16 320 324 606q166 152 460 258q38 -110 114 -332q-444 -164 -526 -358q232 130 452 130q96 0 178 -28l176 -400q-66 -158 -230 -281t-346 -173q-120 -34 -229 -34t-203 40l-154 354q-24 78 -16 218zM395 313q7 -37 82 -42t170 25t160 77t57 85q-6 36 -82 41 t-171 -25t-159 -77t-57 -84z" />
<glyph unicode="7" horiz-adv-x="1136" d="M2 768q38 212 118 634q355 80 724 80q170 0 258 -22l-36 -314l84 -86l-652 -1054l-252 256l422 682q-440 -44 -666 -176z" />
<glyph unicode="8" horiz-adv-x="1472" d="M32 406q74 198 352 352q-56 8 -100 24l-156 290q56 146 246 264q160 100 309 133t249 33t182 -22l174 -330q-60 -118 -218 -224q74 -4 160 -24l210 -402q-82 -166 -284 -286t-382 -161t-313 -41t-243 40zM438 304q6 -36 96 -42t207 24t195 77t72 85q-10 36 -100 42 t-207 -24t-195 -78t-68 -84zM498 948q6 -28 71 -32t155 20t147 58t51 61t-72 31q-164 10 -300 -74q-58 -36 -52 -64z" />
<glyph unicode="9" horiz-adv-x="1238" d="M-16 972q56 172 235 305t375 185q124 34 227 34t189 -30l182 -400q36 -80 36 -216q-4 -308 -342 -592q-180 -150 -500 -258q-40 110 -118 330q480 170 554 374q-234 -128 -466 -128q-116 0 -212 42zM332 870q8 -36 84 -42t177 24t168 77t59 85q-6 36 -86 41t-179 -24 t-165 -77t-58 -84z" />
<glyph unicode=":" horiz-adv-x="612" d="M66 154l56 274l328 -148l-54 -276zM154 640l54 276l330 -150l-56 -274z" />
<glyph unicode=";" horiz-adv-x="676" d="M62 -218q118 326 106 518l342 -30q4 -274 -118 -608q-110 38 -330 120zM174 640l54 276l330 -150l-56 -274z" />
<glyph unicode="=" horiz-adv-x="790" d="M94 706l18 376l574 130l-12 -378zM102 168l20 376l572 128l-12 -378z" />
<glyph unicode="?" horiz-adv-x="1482" d="M106 1254q226 192 580 278q198 46 341 46t245 -28l240 -454q-78 -152 -248 -271t-362 -189l-48 -266l-370 170l52 260q102 -8 301 75t185 161q-12 42 -111 48t-258 -34t-239 -108zM398 82l62 312l372 -168l-62 -310z" />
<glyph unicode="@" horiz-adv-x="1686" d="M48 612q6 66 28 156q90 366 368 642q304 302 660 302q198 0 348 -114l224 -738q-6 -46 -18 -92q-108 -426 -452 -708l-248 168l-4 60l-206 -34l-50 -114l-150 110l306 708l78 -54l-2 32l186 -30l20 -512q230 287 222 528q-10 224 -222 224q-128 0 -304 -113t-323 -330 t-139 -407t158 -226q74 -18 176 12l6 -250q-56 -4 -84 -4q-232 0 -386 148zM856 502l90 14l-6 180z" />
<glyph unicode="A" horiz-adv-x="1118" d="M-110 200l582 1346l144 -104l-2 60l354 -56l54 -1380l-354 58l-6 150l-392 -66l-94 -214zM472 680l174 26l-14 340z" />
<glyph unicode="B" horiz-adv-x="1280" d="M16 164l112 620q-32 -6 -96 -22q24 118 66 318l68 318q419 90 691 90q167 0 279 -34l116 -344q-96 -152 -302 -308q94 0 164 -26l86 -326q-80 -158 -376 -304q-246 -124 -580 -124q-68 0 -140 6zM402 316q96 12 222 52t168 94q8 10 8 18q0 22 -67 30q-8 1 -19 1 q-77 0 -286 -49zM472 708q164 60 228 134q12 14 12 24q0 20 -52 20q-54 0 -160 -20z" />
<glyph unicode="C" horiz-adv-x="1236" d="M-12 634q4 54 22 122q72 282 296 504t498 222q154 0 268 -88l174 -570q-24 -110 -50 -182h-416q10 38 10 68q0 88 -88 88q-66 0 -134 -58t-116 -137q-45 -74 -45 -143v-9q3 -73 63 -87q15 -3 30 -3q97 0 202 133l298 -174q-262 -292 -564 -292q-178 0 -298 114z" />
<glyph unicode="D" horiz-adv-x="1232" d="M68 142l96 614q-52 -12 -96 -24q40 212 126 636q432 98 814 98q64 0 114 -4l164 -482q-420 -566 -1044 -958zM496 550q138 116 208 222q16 26 16 42q0 38 -76 38q-38 0 -94 -10z" />
<glyph unicode="E" horiz-adv-x="1156" d="M56 252l102 558q-32 -14 -92 -46q38 212 120 634q357 78 732 78q166 0 250 -20l-56 -490q-386 -21 -580 -52l-22 -122l338 48l34 -262l-422 -62l-26 -152q280 22 538 102q36 -118 110 -328q-330 -111 -758 -111q-36 0 -72 1q-20 52 -54 160z" />
<glyph unicode="F" horiz-adv-x="1102" d="M36 164l116 648q-32 -14 -92 -46l60 316q36 198 60 316q355 80 730 80q166 0 252 -20l-56 -490q-222 -12 -337 -21t-239 -31l-26 -150l340 48l58 -350l-466 -68l-70 -382q-84 36 -166 74z" />
<glyph unicode="G" horiz-adv-x="1216" d="M-8 636q4 40 20 120q70 280 297 504t499 224q154 0 268 -88l174 -570q-22 -102 -52 -184h-414q8 36 8 66q0 92 -84 92q-64 0 -135 -59t-118 -137q-43 -72 -43 -140v-12q2 -92 88 -92q68 0 148 72h-126l46 124h616l-200 -566l-344 -46l48 140q-126 -56 -248 -56 q-180 0 -300 114z" />
<glyph unicode="H" horiz-adv-x="1224" d="M10 190l234 1298l328 -150l-86 -474q106 18 240 32l108 596l402 -168l-236 -1296l-402 166l26 146q-142 -28 -246 -64l-42 -234z" />
<glyph unicode="I" horiz-adv-x="568" d="M16 184l236 1296l328 -148l-236 -1298z" />
<glyph unicode="J" horiz-adv-x="1314" d="M14 180l154 858l328 -150l-40 -218q198 38 416 56l136 750l328 -148l-236 -1298l-326 148q-80 -16 -267 -66t-197 -68z" />
<glyph unicode="K" horiz-adv-x="1218" d="M10 174l234 1296l328 -148l-44 -240l554 340l160 -510l-476 -316l434 -64l-144 -350l-674 96l-46 -254z" />
<glyph unicode="L" horiz-adv-x="1080" d="M18 186l230 1280l328 -148l-114 -642q296 56 610 66l-68 -532q-10 1 -24 1q-99 0 -358 -65q-294 -74 -306 -96z" />
<glyph unicode="M" horiz-adv-x="1488" d="M12 192l234 1298l314 -142l210 -416l412 542l328 -148l-234 -1298l-328 150l66 344l-354 -470l-230 520l-92 -528z" />
<glyph unicode="N" horiz-adv-x="1194" d="M-14 174l232 1298l562 -558l98 560l328 -148l-236 -1296l-576 474l-82 -478z" />
<glyph unicode="O" horiz-adv-x="1206" d="M-12 630q4 40 20 120q72 282 286 494q234 234 508 234q154 0 268 -88l174 -570q-4 -24 -16 -70q-70 -280 -296 -504t-498 -224q-178 0 -300 116zM406 446q2 -90 86 -90q64 0 133 59t117 137q44 72 44 141v11q-4 92 -86 92q-66 0 -134 -59t-116 -138q-44 -73 -44 -142v-11 z" />
<glyph unicode="P" horiz-adv-x="1196" d="M42 150l120 656q-30 -6 -92 -22q24 118 66 316l68 318q202 40 444 74q100 12 216 12t246 -26l106 -584q-244 -316 -788 -578l-58 -316zM488 650q72 26 162 84t90 108t-94 50q-46 0 -116 -12z" />
<glyph unicode="Q" horiz-adv-x="1242" d="M-4 624q4 48 22 122q70 280 295 503t499 223q152 0 270 -88l172 -570q-6 -28 -14 -68q-48 -188 -166 -352l182 -26l-144 -350l-410 60q-126 -60 -258 -60q-178 0 -300 114zM415 440q3 -74 63 -86q0 -2 4 -2l84 120l118 -18q32 32 74 102q38 64 38 131v13q-4 90 -86 90 q-66 0 -134 -59t-116 -138q-45 -74 -45 -144v-9z" />
<glyph unicode="R" horiz-adv-x="1232" d="M54 146l118 656q-56 -14 -92 -20q26 118 68 316l68 316q423 88 598.5 88t305.5 -28l108 -584q-164 -212 -514 -426l488 -74l-144 -348l-652 92l-24 -134zM500 646q72 28 161 87t89 108t-92 49q-46 0 -116 -12z" />
<glyph unicode="S" horiz-adv-x="1248" d="M14 628q6 40 22 120q68 280 295 504t499 224q154 0 268 -88l154 -506l-458 -116q10 40 10 68q0 56 -52 56q-84 0 -182 -116q-56 -66 -60 -128l504 74l138 -230q-114 -196 -300 -332t-377 -136t-313 114v2l286 254q30 -72 90 -72q32 0 72 20q107 49 107 118q0 7 -1 14 l-648 -26z" />
<glyph unicode="T" horiz-adv-x="998" d="M-8 762q38 210 118 632q355 80 732 80q166 0 250 -20l-56 -490q-112 -8 -338 -22l-168 -910l-328 150l130 706q-220 -56 -340 -126z" />
<glyph unicode="U" horiz-adv-x="1224" d="M10 128l242 1334l328 -148l-124 -676l248 106l136 750l386 -172l-236 -1298l-384 172l-356 -178z" />
<glyph unicode="V" horiz-adv-x="970" d="M70 1454l354 -58l28 -650l284 766l350 -250l-576 -1344l-178 124l-202 34z" />
<glyph unicode="W" horiz-adv-x="1472" d="M12 186l234 1298l328 -150l-92 -476l380 602l218 -530l102 540l328 -150l-234 -1296l-260 112l-54 28l-248 356l-376 -482z" />
<glyph unicode="X" horiz-adv-x="1068" d="M-8 280l308 440l-244 714l442 46l112 -316l210 300l240 -270l-306 -436l236 -662l-458 -56l-92 270l-212 -302z" />
<glyph unicode="Y" horiz-adv-x="1034" d="M-24 1424l438 44l144 -404l274 388l238 -270l-368 -524l-120 -650l-418 184l82 434z" />
<glyph unicode="Z" horiz-adv-x="1314" d="M26 346l716 594q-404 -48 -620 -172l60 316q36 198 60 318q355 78 730 78q166 0 252 -20l-34 -294l108 -222l-598 -494l482 62l-44 -374l-1038 -136z" />
<glyph unicode="\" horiz-adv-x="1160" d="M10 1260l238 270l876 -1268l-238 -268z" />
<glyph unicode="a" horiz-adv-x="1120" d="M-110 200l582 1346l144 -104l-2 60l354 -56l54 -1380l-354 58l-6 150l-392 -66l-94 -214zM472 680l174 26l-14 340z" />
<glyph unicode="b" horiz-adv-x="1280" d="M16 164l112 620q-32 -6 -96 -22q24 118 66 318l68 318q419 90 691 90q167 0 279 -34l116 -344q-96 -152 -302 -308q94 0 164 -26l86 -326q-80 -158 -376 -304q-246 -124 -580 -124q-68 0 -140 6zM402 316q96 12 222 52t168 94q8 10 8 18q0 22 -67 30q-8 1 -19 1 q-77 0 -286 -49zM472 708q164 60 228 134q12 14 12 24q0 20 -52 20q-54 0 -160 -20z" />
<glyph unicode="c" horiz-adv-x="1236" d="M-12 634q4 54 22 122q72 282 296 504t498 222q154 0 268 -88l174 -570q-24 -110 -50 -182h-416q10 38 10 68q0 88 -88 88q-66 0 -134 -58t-116 -137q-45 -74 -45 -143v-9q3 -73 63 -87q15 -3 30 -3q97 0 202 133l298 -174q-262 -292 -564 -292q-178 0 -298 114z" />
<glyph unicode="d" horiz-adv-x="1232" d="M68 142l96 614q-52 -12 -96 -24q40 212 126 636q432 98 814 98q64 0 114 -4l164 -482q-420 -566 -1044 -958zM496 550q138 116 208 222q16 26 16 42q0 38 -76 38q-38 0 -94 -10z" />
<glyph unicode="e" horiz-adv-x="1156" d="M56 252l102 558q-32 -14 -92 -46q38 212 120 634q357 78 732 78q166 0 250 -20l-56 -490q-386 -21 -580 -52l-22 -122l338 48l34 -262l-422 -62l-26 -152q280 22 538 102q36 -118 110 -328q-330 -111 -758 -111q-36 0 -72 1q-20 52 -54 160z" />
<glyph unicode="f" horiz-adv-x="1102" d="M36 164l116 648q-32 -14 -92 -46l60 316q36 198 60 316q355 80 730 80q166 0 252 -20l-56 -490q-222 -12 -337 -21t-239 -31l-26 -150l340 48l58 -350l-466 -68l-70 -382q-84 36 -166 74z" />
<glyph unicode="g" horiz-adv-x="1216" d="M-8 636q4 40 20 120q70 280 297 504t499 224q154 0 268 -88l174 -570q-22 -102 -52 -184h-414q8 36 8 66q0 92 -84 92q-64 0 -135 -59t-118 -137q-43 -72 -43 -140v-12q2 -92 88 -92q68 0 148 72h-126l46 124h616l-200 -566l-344 -46l48 140q-126 -56 -248 -56 q-180 0 -300 114z" />
<glyph unicode="h" horiz-adv-x="1224" d="M10 190l234 1298l328 -150l-86 -474q106 18 240 32l108 596l402 -168l-236 -1296l-402 166l26 146q-142 -28 -246 -64l-42 -234z" />
<glyph unicode="i" horiz-adv-x="568" d="M16 184l236 1296l328 -148l-236 -1298z" />
<glyph unicode="j" horiz-adv-x="1314" d="M14 180l154 858l328 -150l-40 -218q198 38 416 56l136 750l328 -148l-236 -1298l-326 148q-80 -16 -267 -66t-197 -68z" />
<glyph unicode="k" horiz-adv-x="1218" d="M10 174l234 1296l328 -148l-44 -240l554 340l160 -510l-476 -316l434 -64l-144 -350l-674 96l-46 -254z" />
<glyph unicode="l" horiz-adv-x="1080" d="M18 186l230 1280l328 -148l-114 -642q296 56 610 66l-68 -532q-10 1 -24 1q-99 0 -358 -65q-294 -74 -306 -96z" />
<glyph unicode="m" horiz-adv-x="1488" d="M12 192l234 1298l314 -142l210 -416l412 542l328 -148l-234 -1298l-328 150l66 344l-354 -470l-230 520l-92 -528z" />
<glyph unicode="n" horiz-adv-x="1194" d="M-14 174l232 1298l562 -558l98 560l328 -148l-236 -1296l-576 474l-82 -478z" />
<glyph unicode="o" horiz-adv-x="1206" d="M-12 630q4 40 20 120q72 282 286 494q234 234 508 234q154 0 268 -88l174 -570q-4 -24 -16 -70q-70 -280 -296 -504t-498 -224q-178 0 -300 116zM406 446q2 -90 86 -90q64 0 133 59t117 137q44 72 44 141v11q-4 92 -86 92q-66 0 -134 -59t-116 -138q-44 -73 -44 -142v-11 z" />
<glyph unicode="p" horiz-adv-x="1196" d="M42 150l120 656q-30 -6 -92 -22q24 118 66 316l68 318q202 40 444 74q100 12 216 12t246 -26l106 -584q-244 -316 -788 -578l-58 -316zM488 650q72 26 162 84t90 108t-94 50q-46 0 -116 -12z" />
<glyph unicode="q" horiz-adv-x="1242" d="M-4 624q4 48 22 122q70 280 295 503t499 223q152 0 270 -88l172 -570q-6 -28 -14 -68q-48 -188 -166 -352l182 -26l-144 -350l-410 60q-126 -60 -258 -60q-178 0 -300 114zM415 440q3 -74 63 -86q0 -2 4 -2l84 120l118 -18q32 32 74 102q38 64 38 131v13q-4 90 -86 90 q-66 0 -134 -59t-116 -138q-45 -74 -45 -144v-9z" />
<glyph unicode="r" horiz-adv-x="1232" d="M54 146l118 656q-56 -14 -92 -20q26 118 68 316l68 316q423 88 598.5 88t305.5 -28l108 -584q-164 -212 -514 -426l488 -74l-144 -348l-652 92l-24 -134zM500 646q72 28 161 87t89 108t-92 49q-46 0 -116 -12z" />
<glyph unicode="s" horiz-adv-x="1248" d="M14 628q6 40 22 120q68 280 295 504t499 224q154 0 268 -88l154 -506l-458 -116q10 40 10 68q0 56 -52 56q-84 0 -182 -116q-56 -66 -60 -128l504 74l138 -230q-114 -196 -300 -332t-377 -136t-313 114v2l286 254q30 -72 90 -72q32 0 72 20q107 49 107 118q0 7 -1 14 l-648 -26z" />
<glyph unicode="t" horiz-adv-x="998" d="M-8 762q38 210 118 632q355 80 732 80q166 0 250 -20l-56 -490q-112 -8 -338 -22l-168 -910l-328 150l130 706q-220 -56 -340 -126z" />
<glyph unicode="u" horiz-adv-x="1224" d="M10 128l242 1334l328 -148l-124 -676l248 106l136 750l386 -172l-236 -1298l-384 172l-356 -178z" />
<glyph unicode="v" horiz-adv-x="970" d="M70 1454l354 -58l28 -650l284 766l350 -250l-576 -1344l-178 124l-202 34z" />
<glyph unicode="w" horiz-adv-x="1472" d="M12 186l234 1298l328 -150l-92 -476l380 602l218 -530l102 540l328 -150l-234 -1296l-260 112l-54 28l-248 356l-376 -482z" />
<glyph unicode="x" horiz-adv-x="1068" d="M-8 280l308 440l-244 714l442 46l112 -316l210 300l240 -270l-306 -436l236 -662l-458 -56l-92 270l-212 -302z" />
<glyph unicode="y" horiz-adv-x="1034" d="M-24 1424l438 44l144 -404l274 388l238 -270l-368 -524l-120 -650l-418 184l82 434z" />
<glyph unicode="z" horiz-adv-x="1314" d="M26 346l716 594q-404 -48 -620 -172l60 316q36 198 60 318q355 78 730 78q166 0 252 -20l-34 -294l108 -222l-598 -494l482 62l-44 -374l-1038 -136z" />
<glyph unicode="&#xa0;" />
<glyph unicode="&#xa8;" />
<glyph unicode="&#xa9;" horiz-adv-x="1688" d="M46 612q61 461 398 798q304 302 660 302q200 0 348 -116l224 -738q-4 -24 -20 -90q-92 -364 -370 -640q-306 -302 -660 -302q-230 0 -388 150zM370 286q10 -224 224 -224q128 0 301 112t321 330t140 416q-10 224 -224 224q-128 0 -288 -104q-188 -120 -336 -338 t-138 -416zM578 548q21 167 139.5 283.5t246.5 116.5q74 0 126 -42l82 -268q-10 -38 -24 -86h-196q20 74 -44 74q-58 0 -108 -88q-28 -48 -28 -79t34 -39q48 -14 110 62l140 -82q-122 -138 -266 -138q-84 0 -140 54z" />
<glyph unicode="&#xad;" horiz-adv-x="778" d="M104 388l20 376l572 130l-12 -378z" />
<glyph unicode="&#xae;" horiz-adv-x="1690" d="M50 622q12 98 26 156q90 364 384 654t648 290q200 0 348 -116l224 -738q-86 -428 -390 -730q-306 -302 -660 -302q-230 0 -388 150zM372 296q10 -224 222 -224q184 0 408 192l-184 26l-12 -62l-148 66l54 296q-14 -4 -42 -8q12 52 32 142l30 142q188 38 268 38t140 -12 l48 -262q-74 -96 -232 -192l188 -28q226 287 216 516.5t-222 229.5q-128 0 -304 -113t-323 -330t-139 -417zM860 520q76 28 110 76q6 10 6 18q0 16 -31 16t-67 -6z" />
<glyph unicode="&#xd2;" />
<glyph unicode="&#xd3;" />
<glyph unicode="&#xd4;" />
<glyph unicode="&#x2000;" horiz-adv-x="861" />
<glyph unicode="&#x2001;" horiz-adv-x="1722" />
<glyph unicode="&#x2002;" horiz-adv-x="861" />
<glyph unicode="&#x2003;" horiz-adv-x="1722" />
<glyph unicode="&#x2004;" horiz-adv-x="574" />
<glyph unicode="&#x2005;" horiz-adv-x="430" />
<glyph unicode="&#x2006;" horiz-adv-x="287" />
<glyph unicode="&#x2007;" horiz-adv-x="287" />
<glyph unicode="&#x2008;" horiz-adv-x="215" />
<glyph unicode="&#x2009;" horiz-adv-x="344" />
<glyph unicode="&#x200a;" horiz-adv-x="95" />
<glyph unicode="&#x2010;" horiz-adv-x="778" d="M104 388l20 376l572 130l-12 -378z" />
<glyph unicode="&#x2011;" horiz-adv-x="778" d="M104 388l20 376l572 130l-12 -378z" />
<glyph unicode="&#x2012;" horiz-adv-x="778" d="M104 388l20 376l572 130l-12 -378z" />
<glyph unicode="&#x2013;" horiz-adv-x="1210" d="M104 388l35 376l989 130l-21 -378z" />
<glyph unicode="&#x2014;" horiz-adv-x="2234" d="M104 388l69 376l1979 130l-42 -378z" />
<glyph unicode="&#x2018;" horiz-adv-x="520" d="M132 1596l342 30q-14 -190 106 -520q-110 -40 -332 -122q-124 340 -116 612z" />
<glyph unicode="&#x2019;" horiz-adv-x="488" d="M104 1106q118 322 106 520l342 -30q4 -278 -118 -612q-110 38 -330 122z" />
<glyph unicode="&#x201c;" horiz-adv-x="1010" d="M106 1490l342 30q-14 -190 106 -520q-110 -38 -332 -120q-124 336 -116 610zM584 1590l342 30q-2 -26 -2 -54q0 -170 106 -466q-110 -38 -330 -120q-128 338 -116 610z" />
<glyph unicode="&#x201d;" horiz-adv-x="960" d="M106 1100q118 326 106 520l342 -30q4 -280 -118 -610q-110 38 -330 120zM582 1000q118 322 106 520l342 -30q8 -274 -116 -610q-112 38 -332 120z" />
<glyph unicode="&#x2026;" horiz-adv-x="1540" d="M54 154l56 274l328 -148l-54 -276zM520 150l56 274l328 -148l-54 -276zM986 146l56 274l328 -148l-54 -276z" />
<glyph unicode="&#x202f;" horiz-adv-x="344" />
<glyph unicode="&#x205f;" horiz-adv-x="430" />
<glyph unicode="&#xe000;" horiz-adv-x="1480" d="M0 0v1480h1480v-1480h-1480z" />
</font>
</defs>
</svg>
